<svg width="101" height="109" viewBox="0 0 101 109" fill="none" xmlns="http://www.w3.org/2000/svg">
<path d="M1.5 14.3814C1.5 12.6261 2.80027 11.1422 4.54044 10.9117L70.0404 2.23622C72.1377 1.95844 74 3.59038 74 5.70592V72.6186C74 74.3739 72.6997 75.8578 70.9596 76.0883L5.45956 84.7638C3.36233 85.0416 1.5 83.4096 1.5 81.2941V14.3814Z" fill="#F0EAE7" fill-opacity="0.9" stroke="#655851" stroke-width="3"/>
<path d="M38 22L53 20V35L38 37V22Z" fill="#655851"/>
<path d="M38 22L53 20V35L38 37V22Z" fill="#655851"/>
<path d="M38 37L53 35V50L38 37Z" fill="#655851"/>
<path d="M23 39L38 37L53 50L38 52L23 54V39Z" fill="#655851"/>
<path d="M38 52L53 50V65L38 67V52Z" fill="#655851"/>
<path d="M13.5 25.3814C13.5 23.6261 14.8003 22.1422 16.5404 21.9117L82.0404 13.2362C84.1377 12.9584 86 14.5904 86 16.7059V83.6186C86 85.3739 84.6997 86.8578 82.9596 87.0883L17.4596 95.7638C15.3623 96.0416 13.5 94.4096 13.5 92.2941V25.3814Z" fill="#F0EAE7" fill-opacity="0.9" stroke="#655851" stroke-width="3"/>
<path d="M50 32L65 30V45L50 47V32Z" fill="#655851"/>
<path d="M50 32L65 30V45L50 47V32Z" fill="#655851"/>
<path d="M50 47L65 45V60L50 62V47Z" fill="#655851"/>
<path d="M65 75V60L50 47V62L35 64L50 77L65 75Z" fill="#655851"/>
<path d="M35 64L50 62V77L35 79V64Z" fill="#655851"/>
<path d="M26.5 36.3814C26.5 34.6261 27.8003 33.1422 29.5404 32.9117L95.0404 24.2362C97.1377 23.9584 99 25.5904 99 27.7059V94.6186C99 96.3739 97.6997 97.8578 95.9596 98.0883L30.4596 106.764C28.3623 107.042 26.5 105.41 26.5 103.294V36.3814Z" fill="#F0EAE7" fill-opacity="0.9" stroke="#655851" stroke-width="3"/>
<path d="M63 43L78 41V56L63 58V43Z" fill="#655851"/>
<path d="M63 43L78 41V56L63 58V43Z" fill="#655851"/>
<path d="M63 58L78 56V71L63 73V58Z" fill="#655851"/>
<path d="M48 60L63 58V73L48 75V60Z" fill="#655851"/>
<path d="M48 75L63 73V88L48 90V75Z" fill="#655851"/>
</svg>
